<svg id="Camada_1" data-name="Camada 1" xmlns="http://www.w3.org/2000/svg" viewBox="0 0 636.01 848.31"><defs><style>.cls-1{fill:#010101;}</style></defs><path class="cls-1" d="M240.75,855.89A80,80,0,0,0,321,936.17h380.9a80,80,0,0,0,80.28-80.28V324.24H240.75ZM638.59,422.36h42.82V838.05H638.59Zm-148.07,0h42.81V838.05H490.52Zm-147.19,0h42.82V838.05H343.33Z" transform="translate(-194.36 -87.85)"/><path class="cls-1" d="M813.43,181.52H627.89l-10.71-50c-5.35-25.87-27.65-43.71-54.41-43.71H461.08c-25.87,0-48.17,17.84-54.41,43.71l-10.71,50H210.42a16,16,0,0,0-16.06,16v67.8a16,16,0,0,0,16.06,16.05h603.9a16,16,0,0,0,16.06-16.05v-67.8C829.49,188.65,822.35,181.52,813.43,181.52ZM448.59,141.38c.89-6.25,6.25-9.82,12.49-9.82H562.77c6.24,0,11.6,4.46,12.49,9.82l8.92,40.14H439.67Z" transform="translate(-194.36 -87.85)"/></svg>